 http://www.torrentday.com - Your Key To The Scene.

 
http://www.torrentday.com :  Clean RAR Scene Releases!


Enjoy =)

...................................NFO:....................................

.      *********** ****    ****      ***      ******** *********** ****    *** **********
           *+*     +*+*+* *+*+*+   *+* *+*   *+*    *+*    *+*     *+*+*   *+* *+*        
           +*+     +*+ +*+*+ +*+  +*+   +*+  +*+           +*+     *+*+*+  +*+ +*+        
           +$+     +$+  +*+  +$+ +$++*++$++* *$*           +$+     +$+ +*+ +$+ +$++*++$  
           +$+     +$+       +$+ +$+     +$+ +$+   +$+$    +$+     +$+  +$+$+$ +$+        
           $+$     $+$       $+$ $+$     $+$ $+$    $+$    $+$     $+$   $+$+$ $+$        
       $$$$$$$$$$$ $$$       $$$ $$$     $$$  $$$$$$$$ $$$$$$$$$$$ $$$    $$$$ $$$$$$$$$$     
                                                



                           Another Fine Release Brought to you from - IMAGiNE                   
                                              http://imaginegroup.me/  
    
********************************************************************************************************************                                
                                         Old Dogs PPV XVID - IMAGINE
********************************************************************************************************************

Ripper ...........: IMAGiNE                                        IMDB Rating.......:5.1/10                             
Video Codec.......: XVID                                         Release Date......:12/02/10
Audio Codec.......:MP3                                           Theatre Date......:25/11/09
Audio Bitrate.....:224                                              Runtime.......:1h 28mn
Subtitles.........:ENG WHEN NEEDED                Language..........:ENGLISH
Resolution...... 656 x 480                                      IMDb URL..........:http://www.imdb.com/title/tt0976238/

[color=yellow]DETAILS:[/color]

Video
ID                               : 0
Format                           : MPEG-4 Visual
Format profile                   : Advanced Simple@L5
Format settings, BVOP            : Yes
Format settings, QPel            : No
Format settings, GMC             : No warppoints
Format settings, Matrix          : Default (H.263)
Muxing mode                      : Packed bitstream
Codec ID                         : XVID
Codec ID/Hint                    : XviD
Duration                         : 1h 28mn
Bit rate                         : 2 091 Kbps
Width                            : 656 pixels
Height                           : 480 pixels
Display aspect ratio             : 4/3
Frame rate                       : 29.970 fps
Resolution                       : 24 bits
Colorimetry                      : 4:2:0
Scan type                        : Progressive
Bits/(Pixel*Frame)               : 0.222
Stream size                      : 1.29 GiB (90%)
Writing library                  : XviD 1.2.1 (UTC 2008-12-04)

Audio
ID                               : 1
Format                           : MPEG Audio
Format version                   : Version 1
Format profile                   : Layer 2
Codec ID                         : 50
Codec ID/Hint                    : MP1
Duration                         : 1h 28mn
Bit rate mode                    : Constant
Bit rate                         : 224 Kbps
Channel(s)                       : 2 channels
Sampling rate                    : 48.0 KHz
Resolution                       : 16 bits
Video delay                      : 23ms
Stream size                      : 141 MiB (10%)
Alignment                        : Split accross interleaves
Interleave, duration             : 33 ms (1.00 video frame)
Interleave, preload duration     : 500 ms


[color=yellow]NOTES:[/color]

IMAGiNE bringing you another release.....
Here's another ppv.....quality more or less the same as the other one....also had the same problems as new moon.
Fixed what we could with some TLC.
Enjoy
Thanks again to SN and mr H :)


[color=yellow]SCREENS:[/color]

[IMG]http://imagine.takagari.com/OLD%20DOGS%20PPV/vlcsnap-196276.png[/IMG]
[IMG]http://imagine.takagari.com/OLD%20DOGS%20PPV/vlcsnap-197201.png[/IMG]
[IMG]http://imagine.takagari.com/OLD%20DOGS%20PPV/vlcsnap-198413.png[/IMG]
[IMG]http://imagine.takagari.com/OLD%20DOGS%20PPV/vlcsnap-198935.png[/IMG]
[IMG]http://imagine.takagari.com/OLD%20DOGS%20PPV/vlcsnap-199936.png[/IMG]
[IMG]http://imagine.takagari.com/OLD%20DOGS%20PPV/vlcsnap-200290.png[/IMG]


[color=yellow]GREETS:[/color]

FLAWL3SS,ViSiON,DEViSE,FUSiON,STG,SecretMyth,BirdFlu,ELEKTRI4KA
And to all the other p2p grps past and present 

Special thanks to Python-Lair for the server :)
And special thanks to supreme-speeds.com for the ripbox :)


[COLOR=RED]Looking for these,syncers,cammer,silver supplier.....Have anything to offer????......
Contact us imaginegroup@hushmail.com[/COLOR]